<svg xmlns="http://www.w3.org/2000/svg" width="512" height="512" viewBox="0 0 32 32" role="img" aria-label="anime style pixel cat">
  <defs>
    <linearGradient id="animeSky" x1="0" y1="0" x2="0" y2="1">
      <stop offset="0%" stop-color="#FFB7C5"/>  <stop offset="50%" stop-color="#E0BBE4"/>  <stop offset="100%" stop-color="#957DAD"/> </linearGradient>
  </defs>

  <rect x="0" y="0" width="32" height="32" fill="url(#animeSky)"/>

  <g fill="#FFFFFF" opacity="0.8">
    <rect x="2" y="6" width="6" height="2"/>
    <rect x="3" y="5" width="4" height="1"/>
    <rect x="4" y="8" width="3" height="1"/>
  </g>
  <g fill="#FFFFFF" opacity="0.8">
    <rect x="24" y="4" width="6" height="2"/>
    <rect x="25" y="3" width="3" height="1"/>
    <rect x="26" y="6" width="3" height="1"/>
  </g>

  <rect x="10" y="3" width="1" height="1" fill="#FFFACD"/>
  <rect x="20" y="8" width="1" height="1" fill="#FFFACD"/>
  <rect x="3" y="15" width="1" height="1" fill="#FFFACD"/>
  <rect x="29" y="12" width="1" height="1" fill="#FFFACD"/>
  <path d="M26 25 L27 25 L27 24 L28 24 L28 25 L29 25 L29 26 L28 26 L28 27 L27 27 L27 26 L26 26 Z" fill="#FFD700"/>

  <g id="cat-body">
    <rect x="9" y="10" width="1" height="3" fill="#4B0082"/>
    <rect x="10" y="9" width="1" height="1" fill="#4B0082"/>
    <rect x="11" y="8" width="1" height="1" fill="#4B0082"/>
    <rect x="12" y="9" width="1" height="1" fill="#4B0082"/>
    
    <rect x="19" y="9" width="1" height="1" fill="#4B0082"/>
    <rect x="20" y="8" width="1" height="1" fill="#4B0082"/>
    <rect x="21" y="9" width="1" height="1" fill="#4B0082"/>
    <rect x="22" y="10" width="1" height="3" fill="#4B0082"/>

    <rect x="13" y="9" width="6" height="1" fill="#4B0082"/>
    
    <rect x="8" y="13" width="1" height="5" fill="#4B0082"/>
    <rect x="9" y="18" width="1" height="3" fill="#4B0082"/>
    <rect x="10" y="21" width="1" height="1" fill="#4B0082"/>
    <rect x="11" y="22" width="10" height="1" fill="#4B0082"/>
    <rect x="21" y="21" width="1" height="1" fill="#4B0082"/>
    <rect x="22" y="18" width="1" height="3" fill="#4B0082"/>
    <rect x="23" y="13" width="1" height="5" fill="#4B0082"/>

    <rect x="9" y="13" width="14" height="5" fill="#FFFFFF"/> <rect x="10" y="10" width="12" height="3" fill="#FFFFFF"/> <rect x="10" y="18" width="12" height="4" fill="#FFFFFF"/> <rect x="10" y="10" width="2" height="2" fill="#FF69B4"/>
    <rect x="20" y="10" width="2" height="2" fill="#FF69B4"/>

    <rect x="10" y="14" width="3" height="3" fill="#1E90FF"/>
    <rect x="19" y="14" width="3" height="3" fill="#1E90FF"/>
    <rect x="10" y="14" width="1" height="1" fill="#FFFFFF"/>
    <rect x="19" y="14" width="1" height="1" fill="#FFFFFF"/>
    
    <rect x="9" y="16" width="2" height="1" fill="#FFB6C1" opacity="0.7"/>
    <rect x="21" y="16" width="2" height="1" fill="#FFB6C1" opacity="0.7"/>

    <rect x="15" y="17" width="1" height="1" fill="#4B0082"/>
    <rect x="16" y="16" width="1" height="1" fill="#4B0082"/>
    <rect x="17" y="17" width="1" height="1" fill="#4B0082"/>

    <rect x="14" y="19" width="4" height="2" fill="#FF4500"/>
    <rect x="13" y="19" width="1" height="2" fill="#FF4500"/>
    <rect x="18" y="19" width="1" height="2" fill="#FF4500"/>
    
    <rect x="13" y="22" width="2" height="1" fill="#D3D3D3"/>
    <rect x="17" y="22" width="2" height="1" fill="#D3D3D3"/>
  </g>

  <g transform="translate(24, 16)">
    <path d="M1 0 L2 0 L2 1 L3 1 L3 2 L2 2 L2 3 L1 3 L1 2 L0 2 L0 1 L1 1 Z" fill="#FF1493"/>
  </g>
  <g transform="translate(6, 24)">
    <path d="M1 0 L2 0 L2 1 L3 1 L3 2 L2 2 L2 3 L1 3 L1 2 L0 2 L0 1 L1 1 Z" fill="#FF1493"/>
  </g>

</svg>